<svg width="1000" height="1280" viewBox="0 0 1000 1280" fill="none" xmlns="http://www.w3.org/2000/svg">
<rect width="1000" height="1280" rx="80" fill="white"/>
<path d="M304.688 840C304.688 784.772 348.41 740 402.344 740H500V840C500 895.228 456.277 940 402.344 940C348.41 940 304.688 895.228 304.688 840Z" fill="#24CB71"/>
<path d="M500 340V540H597.656C651.59 540 695.312 495.228 695.312 440C695.312 384.772 651.59 340 597.656 340H500Z" fill="#FF7237"/>
<path d="M596.843 740C650.777 740 694.499 695.228 694.499 640C694.499 584.772 650.777 540 596.843 540C542.909 540 499.187 584.772 499.187 640C499.187 695.228 542.909 740 596.843 740Z" fill="#00B6FF"/>
<path d="M304.688 440C304.688 495.228 348.41 540 402.344 540H500V340H402.344C348.41 340 304.688 384.772 304.688 440Z" fill="#FF3737"/>
<path d="M304.688 640C304.688 695.228 348.41 740 402.344 740H500V540H402.344C348.41 540 304.688 584.772 304.688 640Z" fill="#874FFF"/>
</svg>
